<?xml version="1.0" encoding="utf-8"?>
<!-- Generator: Adobe Illustrator 19.0.0, SVG Export Plug-In . SVG Version: 6.00 Build 0)  -->
<svg version="1.1" id="Layer_1" xmlns="http://www.w3.org/2000/svg" xmlns:xlink="http://www.w3.org/1999/xlink" x="0px" y="0px"
	 viewBox="0 0 20 20" style="enable-background:new 0 0 20 20;" xml:space="preserve">
<g id="XMLID_5_">
	<path id="XMLID_17_" d="M18.2,1.5c0.2,0,0.3,0.1,0.3,0.3v16.4c0,0.2-0.1,0.3-0.3,0.3H1.8c-0.2,0-0.3-0.1-0.3-0.3V1.8
		c0-0.2,0.1-0.3,0.3-0.3H18.2 M18.2,0H1.8C0.8,0,0,0.8,0,1.8v16.4c0,1,0.8,1.8,1.8,1.8h16.4c1,0,1.8-0.8,1.8-1.8V1.8
		C20,0.8,19.2,0,18.2,0L18.2,0z"/>
</g>
<polygon id="XMLID_2_" points="3.1,3.5 5.8,3.5 5.8,5.9 3.1,5.3 "/>
<rect id="XMLID_3_" x="3.1" y="7.5" width="2.8" height="9"/>
<path id="XMLID_4_" d="M10.6,16.5H7.8V7.1h2.4V8c0,0,0.6-0.5,1-0.6c0.4-0.2,0.6-0.3,1.1-0.5c0.5-0.2,0.4-0.2,1.2-0.2s0.2-0.1,1,0
	c0.8,0.2,0.4,0.1,1.1,0.4c0.7,0.3,0.3,0.1,0.6,0.4c0.4,0.3,0.3,0.2,0.5,0.8c0.2,0.5,0.1,0.4,0.2,0.7c0.1,0.9,0.1,1.1,0.1,1.1v6.3
	h-2.7v-4.7l-0.1-1.4c0,0-0.2-0.9-0.5-1.2c-0.3-0.3-0.5-0.3-0.8-0.4c-0.4,0-0.5,0-0.7,0c-0.2,0-0.3,0-0.6,0.2c-0.3,0.2,0.1,0-0.5,0.3
	c-0.5,0.4-0.4,1.5-0.4,1.5L10.6,16.5z"/>
</svg>
