<?xml version="1.0" encoding="utf-8"?>
<!-- Generator: Adobe Illustrator 19.0.0, SVG Export Plug-In . SVG Version: 6.00 Build 0)  -->
<svg version="1.1" id="Layer_1" xmlns="http://www.w3.org/2000/svg" xmlns:xlink="http://www.w3.org/1999/xlink" x="0px" y="0px"
	 viewBox="0 0 22 16" style="enable-background:new 0 0 22 16;" xml:space="preserve">
<style type="text/css">
	.st0{fill:#FFFFFF;}
	.st1{fill:none;stroke:#FFFFFF;stroke-width:1.5;stroke-miterlimit:10;}
</style>
<g id="XMLID_40_">
	<path id="XMLID_149_" class="st0" d="M19.4,1.5c0.6,0,1.1,0.5,1.1,1.1v10.9c0,0.6-0.5,1.1-1.1,1.1H2.6c-0.6,0-1.1-0.5-1.1-1.1V2.6
		C1.5,2,2,1.5,2.6,1.5H19.4 M19.4,0H2.6C1.2,0,0,1.2,0,2.6v10.9C0,14.8,1.2,16,2.6,16h16.9c1.4,0,2.6-1.2,2.6-2.6V2.6
		C22,1.2,20.8,0,19.4,0L19.4,0z"/>
</g>
<line id="XMLID_41_" class="st1" x1="0.8" y1="15.2" x2="8.6" y2="7.2"/>
<line id="XMLID_43_" class="st1" x1="21.2" y1="15.2" x2="13.4" y2="7.2"/>
<g id="XMLID_44_">
	<path id="XMLID_145_" class="st1" d="M20.9,0.8l-8.4,7.1c-0.8,0.7-2.2,0.7-3.1,0L1.1,0.8"/>
</g>
</svg>
