<?xml version="1.0" encoding="utf-8"?>
<!-- Generator: Adobe Illustrator 28.2.0, SVG Export Plug-In . SVG Version: 6.00 Build 0)  -->
<svg version="1.1" id="レイヤー_1" xmlns="http://www.w3.org/2000/svg" xmlns:xlink="http://www.w3.org/1999/xlink" x="0px"
	 y="0px" viewBox="0 0 405.8 70.9" style="enable-background:new 0 0 405.8 70.9;" xml:space="preserve">
<style type="text/css">
	.st0{fill:#FF0000;}
</style>
<g>
	<path class="st0" d="M161.5,3.8C132.6-13.2,51.5,30,0,69.2L0.6,70c64.6-43.5,119.5-57.1,133.5-44.8c0.3,0.3,0.6,0.6,0.9,0.9
		c-9.5,1.4-20.3,3.6-31.5,6.6C67.4,42.4,39.8,56.6,42,64.5c2.1,7.9,33.1,6.5,69.2-3.2c6-1.6,11.7-3.3,17.1-5.1
		c-4,5.7-8.3,10.7-10.7,13.5h43.8C172.5,44.3,180.7,15,161.5,3.8z M130.1,54.8c3.6-5.5,6.2-10.4,7.5-14.7c0.7-2.3,1-4.4,1-6.4
		c0-2.8-0.7-5.2-2.2-7.2c10-1.4,18.5-1.8,24.8-1.3c6.4,0.5,10.3,2.1,10.9,4.4c0.1,0.2,0.1,0.4,0.1,0.7
		C172.2,35.5,158.1,45.2,130.1,54.8z"/>
	<g>
		<path d="M220.9,46.6h-14.5l15-27.6h0.2L220.9,46.6z M173,69.6h20.8l6.4-11.8h20.4l-0.3,11.8h20.8L238,7.7h-25.1L173,69.6z"/>
		<path d="M264.5,7.7h20l-18,61.9h-20L264.5,7.7z"/>
		<path d="M297.6,50.7l-0.6,2.2c-1.4,4.7-0.6,8.2,6.3,8.2c7,0,10.2-3.8,11.2-7.4c3.9-13.4-34.9-5.9-28.1-29
			c2.9-9.9,12.6-18.2,33.2-18.2c20,0,25,7.4,22.3,16.9l-0.4,1.5h-19.3c0.9-2.9,1-5.1,0.2-6.5c-0.8-1.5-2.5-2.2-5.5-2.2
			c-5,0-8.6,2.2-9.9,6.7c-3.8,12.9,34.7,6.4,28.4,28.3c-4.1,14-16.5,19.7-34.9,19.7c-14.5,0-27.1-3.2-23.3-16.1l1.2-4L297.6,50.7
			L297.6,50.7z"/>
		<path d="M364.5,19.5h-17.9L350,7.7h55.8l-3.4,11.8h-17.9l-14.7,50.1h-20L364.5,19.5z"/>
	</g>
</g>
</svg>
