<?xml version="1.0" encoding="UTF-8"?>
<!DOCTYPE svg PUBLIC "-//W3C//DTD SVG 1.1//EN" "http://www.w3.org/Graphics/SVG/1.1/DTD/svg11.dtd">
<!-- Creator: CorelDRAW 2021.5 -->
<svg xmlns="http://www.w3.org/2000/svg" xml:space="preserve" width="3.15687in" height="1.66743in" version="1.1" style="shape-rendering:geometricPrecision; text-rendering:geometricPrecision; image-rendering:optimizeQuality; fill-rule:evenodd; clip-rule:evenodd"
viewBox="0 0 2903.61 1533.66"
 xmlns:xlink="http://www.w3.org/1999/xlink"
 xmlns:xodm="http://www.corel.com/coreldraw/odm/2003">
 <defs>
  <style type="text/css">
   <![CDATA[
    .str1 {stroke:black;stroke-width:61.32;stroke-linejoin:round;stroke-miterlimit:2.61313}
    .str0 {stroke:#BFBFBF;stroke-width:36.79;stroke-linejoin:round;stroke-miterlimit:2.61313}
    .fil1 {fill:none}
    .fil2 {fill:black}
    .fil6 {fill:#003962}
    .fil0 {fill:#BFBFBF}
    .fil5 {fill:#ED1B24}
    .fil3 {fill:#EEEEEE}
    .fil7 {fill:black;fill-rule:nonzero}
    .fil4 {fill:#BFBFBF;fill-rule:nonzero}
    .fil8 {fill:#EEEEEE;fill-rule:nonzero}
   ]]>
  </style>
 </defs>
 <g id="Layer_x0020_1">
  <metadata id="CorelCorpID_0Corel-Layer"/>
  <g id="_1691426397280">
   <g>
    <path class="fil0" d="M1883.66 1265.39l191.37 0 0 72.36 -191.37 0c-19.89,0 -36.18,-16.28 -36.18,-36.18l0 -0.01c0,-19.9 16.28,-36.18 36.18,-36.18zm0 -253.26l191.37 0 0 72.36 -191.37 0c-19.89,0 -36.18,-16.28 -36.18,-36.18l0 -0.01c0,-19.9 16.28,-36.18 36.18,-36.18zm0 -253.26l191.37 0 0 72.36 -191.37 0c-19.89,0 -36.18,-16.28 -36.18,-36.18l0 -0.01c0,-19.9 16.28,-36.18 36.18,-36.18zm0 -506.52l191.37 0 0 72.36 -191.37 0c-19.89,0 -36.18,-16.28 -36.18,-36.18l0 -0.01c0,-19.9 16.28,-36.18 36.18,-36.18zm0 253.26l191.37 0 0 72.36 -191.37 0c-19.89,0 -36.18,-16.28 -36.18,-36.18l0 -0.01c0,-19.9 16.28,-36.18 36.18,-36.18z"/>
    <path class="fil1 str0" d="M1314.57 128.49c-1.74,12.89 -21.84,113.98 -31.29,112.07l-124.22 -21.96c0.22,0.36 0.42,0.71 0.64,1.03 40.3,5.68 81.4,13.73 129.36,22.22l-25.29 100.62c-10.41,8.71 -17.83,16.37 -28.27,19.73 -5.16,0.03 -16.56,0.42 -23.55,-0.19 -23.54,-2 -52.64,-15.67 -80.03,-17.95 -48.32,-4.01 -79.69,-9.81 -83.58,-11.59 -31.1,-14.27 -45.32,-80.46 -81.75,-103.77 -17.87,-20.8 -20.12,-36.76 -17.16,-59 -7.21,-9.5 -15.6,-19.73 -25.03,-30.49 -32.52,-36.91 -63.41,-65.33 -115.75,-108.56 95.8,4.81 137.56,36.05 176.93,62.15 27.68,-17.92 88.52,-44.21 130.04,-43.9 151.89,1.16 191.41,64.4 197.89,77.28 -7.63,-3.27 -27.32,-4.36 -52.26,-4.17 31.45,0.09 53.93,1.93 53.32,6.47z"/>
    <path class="fil1 str1" d="M1323.26 153.87c5.85,-13.01 47.85,-61.54 112.11,-55.8 43.44,3.87 80.46,1.01 132.45,2.39 57.23,-5.03 151.18,26.07 201.26,55.03l69.71 86.23 59.42 98.6c-2.29,24.52 -46.33,50.86 -93.38,66.48l-61.78 -104.52 -30.11 -82.95 56.13 -63.83 -64.67 54.45c-52.29,3.22 -119.76,12.95 -128.15,13.25 -42.86,0.03 -120.84,-7.52 -160.16,5.21 -1.62,4.86 -3.79,8.63 -5.82,9.82 -13.95,47.9 -110.56,111.79 -127.51,169.67 5.71,12.72 27.25,56.75 27.81,74.89 -2.42,45.31 -5.92,85.25 -19.2,134l125.92 68.2c4.7,-0.09 9.63,-0 14.81,0.29 14.47,0.81 232.52,-12.09 276.41,-14.38l40.73 -79.03 51.15 -100.78c23.03,-8.14 61.01,16.92 94.64,52.77l-51.76 101.83 -67.03 93.43c-44.09,34.78 -132.5,47.13 -181.18,49.72 -59.76,6.09 -162,31.29 -212.71,9.89 -27.38,-8.3 -103.43,-45.44 -143.89,-67.35 -1.26,11.67 -2.06,23.19 -2.88,33.68 6.71,11.8 6.46,35.65 40.5,40.46 53.2,14.4 130.34,34.42 152.73,73.63l4.16 -8.21c33.04,8 64.96,36.93 89.33,51.36 89.83,53.16 72.55,81.46 112.31,125.52 24.46,27.1 64.4,64.7 85.79,96.03 21.38,31.32 16.8,51.65 26.38,74.03 14.16,33.09 38.29,50.22 37.37,76.33l-1.69 10.75c-0.65,-1.77 -1.42,-3.55 -2.29,-5.32 25.98,-39.81 53.47,-108.35 86.29,-142.43 7.33,-7.6 34.24,0.71 44.51,3.22 -28.32,85.47 -85.14,252.31 -99.29,295.05 -45.43,-10.05 -63.83,-54.86 -63.11,-57.3l8.82 -28.8c1.58,-0.7 3.13,-1.49 4.64,-2.39 -6.1,-2.97 1.67,6.83 -1.62,0.92 -24.28,14.41 -72.41,-10.36 -82.06,-19.69 -21.23,-20.58 -55.19,-52.96 -60.85,-66.47 -46.9,-111.93 -77.3,-150.47 -113.2,-180.4 -6.32,-5.27 -10.18,-11.17 -18.43,-14.68 -16.22,-6.9 -34.22,-14.26 -51.33,-38.75 -37.59,-50.97 -91.82,-43.6 -145.13,-57.85 -27.69,-7.4 -40.26,-6.72 -82.7,-36.94 -35.86,36.58 -25.17,35.28 -73.22,34.04 51.06,101.48 33.68,326.14 -25.72,383.15 -11.31,11.66 -44.44,48.32 -71.77,48.13l35.17 77.94 -14.59 6.58c-30.4,-15.21 -68.67,-24.54 -89.2,-44.08 -75.61,-71.97 -52.42,-95.66 -81.29,-147.53 -17.76,-31.9 -38.12,-55.16 -51.94,-90.48 -34.55,-49.82 5.92,-81.58 -28.01,-115.56 -11.38,45.21 -6.63,83.63 -26.7,127.36 -4.27,9.29 -31.55,10.3 -41.74,11.3 -1.45,-87.23 6.91,-258.55 6.18,-302.16 34.71,-4.19 72.08,31.63 74.36,38.01l-0.09 25.39c10.59,0.52 -7.06,-0.96 2.81,0.37 11.82,1.6 15.69,3.15 28.12,5.9 48.23,10.67 78.35,56.53 91.88,85.03 0.2,0.41 68.97,194.4 59.5,214.12l17.28 -0.19c14.77,-37.82 -16.93,-73.6 -23.8,-123.16 -5.11,-36.86 -0.09,-126.68 22.2,-181.07 15.93,-15.48 11.94,-32.98 -8.2,-52.06 -33.4,-18.97 -17.09,-156.42 -18.64,-196.61 -3.22,-82.72 -18.76,-165.84 -19.34,-242.89 4.88,-38.78 67.43,-129.36 111.29,-134.44 8.28,-12.51 -6.52,-36 -1.03,-41.85 -10.55,-1.57 -28.16,-4.22 -31.9,-5.94 -31.1,-14.27 -45.32,-80.46 -81.75,-103.77 -17.87,-20.8 -20.12,-36.76 -17.16,-59 -7.21,-9.5 -15.6,-19.73 -25.03,-30.49 -32.52,-36.91 -63.41,-65.33 -115.75,-108.56 95.8,4.81 137.56,36.05 176.93,62.15 27.68,-17.92 88.52,-44.21 130.04,-43.9 151.89,1.16 191.41,64.4 197.89,77.28 -15.23,17.45 -0.71,64.36 8.97,30.61 0.16,-1.13 0.42,-2.12 0.78,-2.93z"/>
    <circle class="fil2" cx="1776.42" cy="1337.36" r="32.94"/>
    <circle class="fil2" cx="786.14" cy="1035.42" r="32.94"/>
    <path class="fil0" d="M725.46 1242.94c10.24,-0.22 37.51,0.86 42.48,-8.09 23.48,-42.35 29.44,-108.73 44.79,-154.66 -20.38,-23.58 -13.95,-56.5 4.43,-71.17l1.08 -29.15c0,0 -5.22,-8.16 -14.71,-16.57 -9.48,-8.42 -29.74,-22.58 -58.65,-21.34 -2.6,43.54 -14.22,213.89 -19.42,300.98z"/>
    <path class="fil3" d="M787.17 1185.54c-51.51,-20.42 12.85,-190.3 8.7,-228.31 3.49,2.97 1.99,1.03 7.67,6.07 5.68,5.04 14.71,16.57 14.71,16.57l-0.09 27.13c-18.38,14.67 -24.82,47.58 -4.43,71.16 -9.01,26.95 -19.68,83.59 -26.55,107.37z"/>
    <path class="fil0" d="M946.61 1350.98l56.15 -42.02c5.53,-1.27 48.92,7.24 64.04,16.66 4.39,2.73 7.3,7.31 4.49,12.4l-42.04 65.52 41.91 92.87 -14.59 6.58 -109.97 -152.01z"/>
    <path class="fil0" d="M1910.99 1160.45c-10.27,-2.5 -37.19,-10.82 -44.51,-3.21 -34.67,36.01 -58.24,100.63 -85.75,142.37 14.07,28.94 -1.09,60.06 -23.32,69.81l-8.82 28.79c0,0 3.04,9.52 10.27,20.44 7.23,10.91 23.67,30.42 52.84,36.86 14.16,-42.74 70.98,-209.57 99.3,-295.05z"/>
    <path class="fil3" d="M1836.2 1198.75c46.12,33.82 -64.02,187.72 -69.79,226.76 -3.39,-2.29 -6.08,-4.56 -7.52,-6.72 -7.29,-10.88 -10.37,-20.38 -10.37,-20.38l8.68 -28.84c22.19,-9.85 37.2,-41.05 22.99,-69.9 16.02,-24.57 42.95,-78.96 56.01,-100.91z"/>
    <path class="fil0" d="M1432.99 870.95c41.44,15.06 34.8,33.99 66.4,55.36l-105.22 21.18 38.82 -76.54z"/>
    <path class="fil0" d="M1899.54 342.52c-4.72,24.52 -46.11,48.67 -94.7,64.28l-61.16 -101.62 0.8 1.33 -31.52 -87.18 56.13 -63.83 70.18 86.88 0 0 60.27 100.15z"/>
    <path class="fil3" d="M1432.99 870.95c33.04,8 64.96,36.94 89.33,51.36 89.82,53.16 72.55,81.46 112.31,125.52 24.46,27.1 64.4,64.7 85.79,96.03 21.38,31.32 16.8,51.65 26.38,74.03 9.57,22.38 41.89,79.95 42.99,92.4 8.17,92.38 -95.62,53.25 -111.43,37.94 -21.23,-20.58 -50.05,-40.32 -60.85,-66.47 -9.03,-21.88 -51.51,-142.09 -129.42,-192.2 -2,-1.29 -2.61,-2.18 -2.21,-2.88 -20.2,-6.32 -42.23,-24.46 -51.34,-38.75 -38.47,-52.92 -92.65,-45.28 -146.04,-59.27 -53.39,-14 -205.77,-93.31 -182,-148.7 23.77,-55.4 136.26,-48.81 218.2,-21.53 71.76,23.89 125.94,81.3 156.18,104.37 -12.41,-18.71 -23.69,-32.6 -47.9,-51.85z"/>
    <path class="fil3" d="M1173.14 358.92l67.01 -106.26c29.81,-47.28 93.45,-110.99 93.79,-112.17 0.11,-0.35 0.3,-0.66 0.57,-0.92 26.84,-43.55 90.73,-44.55 130.42,-39.35l0 0c16.6,0.07 32.34,0.03 47.27,-0.01 19.72,-0.47 36.08,-0.75 50.33,-0.74 73.4,-2.46 159.89,18.97 206.54,56l0.01 0.01 0.01 0 69.87 86.13 -94.84 63.56 -36.05 -92.69 -2.99 -3.11 -0.66 0.56 -0.75 0.05c-9.23,3.21 -42.51,3.76 -47.34,4.07l-0.08 -0.05c-27.07,2.86 -45.78,5.73 -51.3,5.94 -43.34,7 -148,-2.95 -191.39,8 -24.82,42.14 -50.33,61.5 -85.09,103.44l-74.56 89.94c-83.7,91.13 -112.74,53.73 -80.76,-62.39z"/>
    <path class="fil4" d="M1289.06 241.85c4.14,-2.1 8.33,2.07 7.72,4.12l-20.21 90.82c-2.28,10.27 -7.75,13.36 -10.77,15.77 -19.82,16.83 -25.34,19.78 -36.86,18.59l-51.16 -5.31c-5.78,-0.6 -7.03,1.75 -4.64,-6.91l13.3 -21.09c9.6,2.73 18.74,5.11 26.66,5.82 6.32,0.48 12.52,0.34 18.85,0.27 5.33,-2.48 10.95,-7.7 15.43,-11.58l19.08 -75.91 -25.73 -4.66c2.68,-4.21 5.62,-8.54 8.75,-12.95 19.14,2.91 20.27,4.69 39.58,3.03z"/>
    <path class="fil5" d="M1310.58 482.78c-95.29,18.42 -313.51,341.48 -325.06,220.33 -14.14,-86.74 -14.81,-167.55 -15.55,-188.41 3.71,-38.54 64.94,-130.49 108.8,-135.57 28.66,0.8 103.06,12.83 113.57,-1.72 24.83,-2.32 46.93,2.18 62.19,11.28 28.59,10.92 54.41,42.61 56.03,94.09z"/>
    <path class="fil6" d="M1209.89 376.89c146.48,11.89 97.05,172.7 75.64,264.36 -9.01,52.84 -25.49,95.74 -28.03,142.49 -1.58,29.3 -4.85,83.06 -9.37,107.32 -7,37.57 -84.81,106.48 -131,68.51 -53.93,-44.32 -64.28,3.46 -88.6,10.72 -14.33,4.27 -22.12,-10.3 -30.88,-28.32 -23.62,-48.57 -7.08,-151.86 -8.33,-184.38 -0.68,-17.73 -4.74,-65.62 -4.65,-65.82 10.96,-24.81 -7.33,-203.93 106.42,-212.72 40.34,-3.11 132.87,15.56 172.35,-10.12 40.43,-26.29 24.32,-73.9 -53.55,-92.04z"/>
    <path class="fil3" d="M1298.55 587.97c-5.03,24.94 -6.72,34.24 -13.02,53.27 -25.99,7.92 -41.24,60.27 -47.05,90.14 -12.07,-72.23 -36.89,-6.68 -67.5,91.92 -27.94,88.08 -123.19,59.94 -173.34,118.66 -20.06,-41.14 -6.3,-114.96 -8.78,-166.88 8.47,-1.49 56.16,2.33 88.2,-37.17 59.98,-73.96 105.45,-141.24 138.08,-179.6 13.92,-16.37 41.4,-33.82 63.56,-30.92 15.43,2 17.74,19.74 19.84,60.57z"/>
    <path class="fil4" d="M1210.5 563.46c16.76,10.71 69.33,37.02 83.61,46.24 -1.08,5.03 -2.11,9.47 -3.31,13.99 -86.4,47.03 -33.02,-6.37 -83.72,98.29 -0.58,-0.15 -1.14,-0.37 -1.66,-0.66 -27.16,-14.69 -54.26,-29.52 -81.54,-43.98 6.59,-8.82 86.51,-113.77 86.61,-113.89z"/>
    <path class="fil3" d="M1204.61 568.95l84.64 46.67c-12.01,9.08 -42.31,3.39 -49.72,13.31 -12.23,16.37 -55.27,31.5 -30.5,85.67 -29.28,-15.81 -57.78,-31.39 -81.89,-44.18 54.35,10.75 114.89,-38.17 77.47,-101.47z"/>
    <path class="fil3" d="M1162.25 1172.53c-8.03,146.98 -26.87,173.16 -54.48,197.82 -11.78,12.14 -50.55,46.89 -77.75,49.08 -11.4,0.92 -20.87,0.35 -28.69,-1.39 15.17,29.51 31.91,49.25 55.25,84.96 -30.4,-15.21 -68.67,-24.54 -89.2,-44.08 -75.61,-71.97 -52.42,-95.66 -81.29,-147.53 -17.76,-31.9 -48.23,-77.51 -62.05,-112.82 -13.8,-35.33 10.22,-91.94 -32.95,-99.55 -31.19,-5.5 1.68,-89 20.26,-94.74 19.92,-6.15 14.58,2.13 37.73,7.25 30.82,6.81 58.43,24.86 76.99,51.22 10.49,14.9 18.09,32.47 21.73,52.16 13.74,74.23 64.84,134.7 56.75,180.12 20.8,-34.58 -3.13,-53.72 -10.61,-107.69 -7.48,-53.97 13.39,-251.1 73.68,-250.44 60.27,0.68 102.65,88.66 94.62,235.63z"/>
    <path class="fil0" d="M1802.96 486.75c23.03,-8.14 61.01,16.92 94.64,52.77l-54.32 106.17 0.28 -0.51 -67.74 93.63 -68.58 -69.19 42.02 -77.75 0.28 -0.48 53.43 -104.64z"/>
    <path class="fil3" d="M1140.63 533.68l173.22 95.5c51.88,28.59 85.2,48.13 101.22,55.14 51.11,0.77 119.64,-3.05 207.38,-8.97l0.01 -0.01c21.5,-1.79 33.09,-1.84 53.64,-2.53 10,-1.21 30.46,-5.04 32.73,-1.4l66.98 67.4 -68.58 -69.19 42.72 -78.67 93.61 54.23 -67.74 93.63c-0.4,0.32 -0.84,0.63 -1.27,0.95l0.55 0.77c-21.77,15.67 -47.93,22.65 -72.71,30.91 -105.81,11.8 -83.21,20.09 -164.79,25.58l1.26 -1.01c-16.89,2.42 -31.68,4.46 -43.09,6.09 -0.01,0.21 -0.03,0.43 -0.03,0.64 -53.9,8.14 -76.88,11.14 -124.16,-8.82 -63.67,-20.73 -225.82,-116.44 -287.58,-145.5 -41.37,-27.06 -44,-73.55 -22.15,-99.12 18.66,-21.81 57.66,-26.13 78.8,-15.63z"/>
    <g>
     <path class="fil7" d="M2075.77 1425.74l765.52 0 0 61.32 -765.52 0 0 0 0 -61.32zm-60.6 0.72l61.32 0 0 0 0 -0.02 0 -0 -0.01 -0.04 -0.01 -0.08 -0 -0.02 -0.02 -0.06 -0.02 -0.06 -0.01 -0.03 -0 -0.01 -0.03 -0.05 -0.04 -0.06 -0.01 -0.02 0.01 0.01 -0.01 -0.01 -0.04 -0.05 -0.03 -0.03 -0.01 -0.01 0.01 0.01 -0.04 -0.03 -0.03 -0.02 -0.01 -0.01 -0.04 -0.03 -0.05 -0.02 -0.01 -0.01 -0.03 -0.01 -0.09 -0.03 -0.03 -0.01 -0.02 -0 -0.08 -0.01 -0.04 -0.01 -0 0 -0.02 0 0 61.32 -3.1 -0.08 -3.04 -0.23 -3.03 -0.38 -3.03 -0.54 -2.92 -0.68 -2.86 -0.81 -2.88 -0.97 -2.74 -1.09 -2.66 -1.2 -2.64 -1.35 -2.55 -1.47 -2.45 -1.57 -2.38 -1.69 -2.3 -1.81 -2.16 -1.87 -2.09 -1.99 -2.01 -2.1 -1.93 -2.22 -1.79 -2.28 -1.67 -2.34 -1.57 -2.44 -1.48 -2.57 -1.34 -2.64 -1.21 -2.66 -1.08 -2.74 -0.97 -2.84 -0.82 -2.9 -0.68 -2.92 -0.54 -3.03 -0.38 -3.03 -0.23 -3.04 -0.08 -3.1 0 0zm61.32 -1336.32l0 1336.32 -61.32 0 0 -1336.32 0 0 61.32 0zm-0.72 -60.6l0 61.32 0 0 0.02 0 0 0 0.04 -0.01 0.08 -0.01 0.02 -0 0.06 -0.02 0.06 -0.02 0.03 -0.01 0.01 -0 0.05 -0.03 0.04 -0.03 0.01 -0.01 0.03 -0.02 0.01 -0.01 0.01 -0.01 0.03 -0.03 0.03 -0.03 0.01 -0.01 0.01 -0.01 0.02 -0.03 0.01 -0.01 0.03 -0.04 0.03 -0.05 0 -0.01 0.01 -0.03 0.02 -0.06 0.02 -0.06 0 -0.02 0.01 -0.08 0.01 -0.04 0 -0 0 -0.02 -61.32 0 0.08 -3.1 0.23 -3.04 0.38 -3.03 0.54 -3.03 0.68 -2.92 0.82 -2.9 0.97 -2.84 1.08 -2.74 1.21 -2.66 1.34 -2.64 1.47 -2.55 1.57 -2.45 1.69 -2.38 1.79 -2.27 1.89 -2.18 2.01 -2.11 2.11 -2.01 2.18 -1.89 2.27 -1.79 2.38 -1.69 2.45 -1.57 2.55 -1.47 2.64 -1.34 2.66 -1.21 2.74 -1.08 2.84 -0.97 2.9 -0.82 2.92 -0.68 3.03 -0.54 3.03 -0.38 3.04 -0.23 3.1 -0.08 0 0zm200.13 17.76l-43.36 43.36 0 0 2.83 2.35 1.32 0.77 -0.13 -0.04 -1.3 -0.41 -2.26 -0.56 -3.03 -0.6 -3.7 -0.59 -4.26 -0.54 -4.74 -0.48 -5.16 -0.42 -5.52 -0.35 -5.83 -0.28 -6.11 -0.22 -6.34 -0.16 -6.52 -0.09 -6.67 -0.05 -6.78 0 -6.85 0.04 -6.89 0.08 -6.91 0.11 -6.88 0.13 -6.82 0.16 -6.72 0.17 -6.61 0.18 -6.45 0.18 -6.26 0.17 -6.04 0.16 -5.8 0.15 -5.54 0.12 -5.25 0.1 -4.94 0.07 -4.61 0.02 0 -61.32 4.04 -0.02 4.51 -0.06 4.95 -0.09 5.33 -0.12 5.67 -0.14 5.99 -0.16 6.25 -0.17 6.48 -0.18 6.68 -0.18 6.85 -0.17 6.98 -0.16 7.08 -0.14 7.15 -0.11 7.2 -0.09 7.2 -0.04 7.18 -0 7.14 0.05 7.06 0.11 6.95 0.17 6.83 0.24 6.69 0.32 6.51 0.41 6.33 0.51 6.15 0.63 5.95 0.76 5.77 0.91 5.65 1.13 5.55 1.39 5.58 1.78 5.76 2.4 6.14 3.47 6.53 5.33 0 0zm17.76 42.84l-61.32 0 0 0 0 0.02 -0 -0.04 0.01 0.05 0 0.05 0 -0 -0.01 -0.05 0 0.02 0.02 0.11 0.01 0.05 -0.01 -0.03 0.01 0.04 -0 -0.01 0.01 0.03 0.04 0.1 -0.02 -0.05 0.01 0.02 0.02 0.05 -0.02 -0.04 0.03 0.05 0.01 0.03 0 0 0.04 0.06 -0.01 -0.02 0.01 0.01 0 0 0.02 0.03 -0 -0 0.04 0.04 -0.01 -0 -0.04 -0.05 0.07 0.08 -0.01 -0.01 43.36 -43.36 1 1.02 1.05 1.13 0.91 1.03 0.93 1.09 0.93 1.16 0.87 1.13 0.87 1.19 0.83 1.19 0.8 1.21 0.75 1.21 0.77 1.3 0.7 1.26 0.7 1.31 0.67 1.35 0.6 1.28 0.61 1.38 0.56 1.37 0.5 1.31 0.53 1.48 0.46 1.42 0.42 1.41 0.39 1.47 0.35 1.41 0.33 1.5 0.3 1.58 0.24 1.5 0.2 1.44 0.17 1.5 0.14 1.56 0.1 1.57 0.05 1.5 0.02 1.56 0 0zm-61.32 1169.68l0 -1169.68 61.32 0 0 1169.68 -30.66 30.66 -30.66 -30.66zm30.66 30.66l-30.66 0 0 -30.66 30.66 30.66zm578.29 0l-578.29 0 0 -61.32 578.29 0 0 0 0 61.32zm60.6 -0.72l-61.32 0 0 0 0 0.02 0 0 0.01 0.04 0.01 0.08 0 0.02 0.02 0.06 0.02 0.06 0.01 0.03 0 0.01 0.03 0.05 0.03 0.04 0.01 0.01 0.02 0.03 0.01 0.01 0.01 0.01 0.03 0.03 0.03 0.03 0.01 0.01 0.01 0.01 0.03 0.02 0.01 0.01 0.04 0.03 0.05 0.03 0.01 0 0.03 0.01 0.06 0.02 0.06 0.02 0.02 0 0.08 0.01 0.04 0.01 0 0 0.02 0 0 -61.32 3.1 0.08 3.04 0.23 3.03 0.38 3.03 0.54 2.92 0.68 2.9 0.82 2.84 0.97 2.74 1.08 2.66 1.21 2.64 1.34 2.55 1.47 2.45 1.57 2.38 1.69 2.27 1.79 2.18 1.89 2.11 2.01 2.01 2.11 1.89 2.18 1.79 2.27 1.69 2.38 1.57 2.45 1.47 2.55 1.34 2.64 1.21 2.66 1.08 2.74 0.97 2.84 0.82 2.9 0.68 2.92 0.54 3.03 0.38 3.03 0.23 3.04 0.08 3.1 0 0zm-17.76 179.54l-43.36 -43.36 0 0 -2.03 2.4 -0.77 1.26 -0.05 0.08 0.31 -0.89 0.47 -1.74 0.54 -2.45 0.54 -3.03 0.51 -3.53 0.46 -3.96 0.4 -4.37 0.34 -4.69 0.28 -4.96 0.21 -5.2 0.16 -5.42 0.11 -5.59 0.05 -5.73 0.01 -5.84 -0.04 -5.93 -0.07 -5.98 -0.1 -5.99 -0.12 -5.99 -0.14 -5.96 -0.16 -5.93 -0.16 -5.83 -0.17 -5.71 -0.16 -5.59 -0.16 -5.42 -0.14 -5.27 -0.12 -5.07 -0.1 -4.84 -0.06 -4.63 -0.02 -4.37 61.32 0 0.02 3.8 0.05 4.18 0.09 4.53 0.11 4.84 0.14 5.1 0.15 5.37 0.16 5.57 0.17 5.76 0.16 5.92 0.16 6.02 0.15 6.15 0.13 6.23 0.1 6.29 0.07 6.3 0.04 6.31 -0.01 6.3 -0.06 6.26 -0.11 6.2 -0.18 6.12 -0.25 6.03 -0.33 5.91 -0.42 5.78 -0.52 5.64 -0.64 5.53 -0.78 5.4 -0.95 5.28 -1.16 5.19 -1.44 5.19 -1.84 5.26 -2.44 5.41 -3.42 5.72 -4.95 5.94 0 0zm-42.84 17.76l0 -61.32 0 0 -0.05 0 0.02 0 -0.06 0 -0.08 0.01 -0 0 -0.01 0 -0.1 0.02 -0.03 0 0.04 -0.01 0.05 -0.01 -0.06 0.02 -0.07 0.02 0.09 -0.03 -0 0 -0.1 0.04 -0.01 0 0.05 -0.03 -0.04 0.02 0.02 -0.01 0.01 -0.01 0.01 -0 -0.03 0.02 -0.05 0.03 0.02 -0.01 0.01 -0.01 0.01 -0.01 -0.08 0.06 0.01 -0.01 0 0 -0.03 0.03 -0.03 0.04 -0.04 0.04 43.36 43.36 -1.06 1.04 -1.08 1.01 -1.11 0.98 -1.1 0.92 -1.12 0.89 -1.22 0.93 -1.16 0.84 -1.17 0.81 -1.19 0.78 -1.28 0.8 -1.28 0.75 -1.27 0.71 -1.28 0.67 -1.29 0.64 -1.37 0.64 -1.3 0.56 -1.37 0.56 -1.47 0.56 -1.39 0.49 -1.31 0.43 -1.48 0.45 -1.49 0.4 -1.39 0.34 -1.41 0.31 -1.49 0.29 -1.57 0.26 -1.49 0.21 -1.49 0.17 -1.58 0.14 -1.57 0.1 -1.49 0.06 -1.56 0.02 0 0z"/>
     <path id="_1" class="fil8" d="M2841.29 1456.4l-765.52 0c-16.51,0 -29.94,-13.43 -29.94,-29.94l0 -1336.32c0,-16.51 13.43,-29.94 29.94,-29.94 43.89,0 161.81,-7.86 178.45,8.78 5.42,5.42 8.78,12.91 8.78,21.16l0 1169.68 578.29 0c16.51,0 29.94,13.43 29.94,29.94 0,41.85 7.5,141.58 -8.78,157.86 -5.39,5.39 -13.06,8.78 -21.16,8.78z"/>
    </g>
    <g>
     <path class="fil7" d="M235.44 1478.2l4.06 -61.18 0 0 23.83 1.2 23.43 0.41 22.98 -0.38 22.51 -1.17 22.01 -1.96 21.49 -2.74 20.93 -3.53 20.35 -4.31 19.75 -5.09 19.11 -5.87 18.46 -6.64 17.79 -7.41 17.09 -8.18 16.37 -8.95 15.65 -9.72 14.9 -10.48 14.15 -11.25 13.38 -12.03 12.61 -12.82 11.82 -13.63 11.01 -14.44 10.2 -15.29 9.36 -16.15 8.51 -17.03 7.63 -17.93 6.72 -18.87 5.78 -19.81 4.81 -20.78 3.81 -21.76 2.76 -22.76 1.69 -23.77 0.57 -24.79 61.32 0 -0.64 27.64 -1.9 26.75 -3.14 25.87 -4.37 24.99 -5.58 24.09 -6.77 23.19 -7.94 22.28 -9.08 21.35 -10.2 20.42 -11.28 19.46 -12.34 18.5 -13.36 17.52 -14.34 16.53 -15.27 15.54 -16.16 14.54 -17.02 13.54 -17.82 12.54 -18.59 11.54 -19.31 10.55 -20 9.58 -20.65 8.61 -21.26 7.65 -21.84 6.71 -22.4 5.77 -22.91 4.85 -23.41 3.95 -23.87 3.05 -24.31 2.16 -24.72 1.28 -25.11 0.41 -25.47 -0.45 -25.8 -1.3 0 0zm-220.21 -44.36l47.47 -38.82 -0 -0 -2.55 -2.57 -0.8 -0.59 0.81 0.41 2.11 0.9 3.17 1.14 4.05 1.26 4.77 1.3 5.4 1.31 5.95 1.31 6.4 1.28 6.79 1.24 7.15 1.21 7.41 1.17 7.63 1.11 7.81 1.07 7.93 1.02 7.98 0.97 8 0.92 7.97 0.87 7.88 0.82 7.75 0.76 7.59 0.71 7.35 0.67 7.08 0.61 6.76 0.56 6.38 0.51 5.97 0.46 5.51 0.41 5 0.36 4.46 0.31 3.86 0.26 3.2 0.22 -4.06 61.18 -3.3 -0.22 -3.95 -0.27 -4.57 -0.32 -5.14 -0.37 -5.67 -0.42 -6.13 -0.47 -6.58 -0.53 -6.95 -0.58 -7.29 -0.63 -7.59 -0.69 -7.83 -0.74 -8.04 -0.79 -8.19 -0.85 -8.31 -0.91 -8.38 -0.96 -8.41 -1.02 -8.37 -1.08 -8.32 -1.13 -8.23 -1.21 -8.09 -1.27 -7.9 -1.34 -7.71 -1.41 -7.46 -1.49 -7.18 -1.58 -6.91 -1.68 -6.61 -1.81 -6.34 -1.97 -6.11 -2.21 -5.97 -2.56 -5.99 -3.18 -6.21 -4.29 -6.49 -6.39 -0 -0zm-7.84 -214.47l55.4 26.3 0.01 -0.01 2.02 -5.88 0.03 -0.08 -0.21 1.7 -0.28 2.82 -0.31 3.68 -0.32 4.39 -0.32 5.01 -0.32 5.57 -0.31 6.05 -0.29 6.47 -0.27 6.84 -0.24 7.13 -0.21 7.38 -0.18 7.57 -0.14 7.69 -0.09 7.77 -0.05 7.8 0 7.75 0.06 7.64 0.13 7.49 0.19 7.28 0.25 6.99 0.33 6.63 0.39 6.21 0.46 5.71 0.52 5.11 0.58 4.4 0.59 3.54 0.53 2.46 0.29 1.04 -0.43 -0.97 -2.5 -3.8 -47.47 38.82 -4.98 -7.79 -2.68 -6.51 -1.73 -5.95 -1.27 -5.87 -1 -6.01 -0.82 -6.28 -0.68 -6.59 -0.56 -6.89 -0.46 -7.19 -0.36 -7.47 -0.28 -7.69 -0.2 -7.87 -0.13 -8.02 -0.07 -8.14 -0 -8.18 0.05 -8.18 0.1 -8.14 0.14 -8.06 0.19 -7.9 0.22 -7.7 0.26 -7.45 0.28 -7.16 0.31 -6.81 0.32 -6.41 0.34 -5.97 0.35 -5.5 0.36 -4.98 0.37 -4.44 0.39 -3.95 0.45 -3.6 0.65 -3.82 2.6 -7.94 0.01 -0.01zm12.15 22.27l47.4 -38.91 -4.26 43.16 -0.05 0.04 -0.06 0.05 0.1 -0.09 -0.04 0.04 -0.04 0.04 0.03 -0.03 -0.04 0.03 0.04 -0.03 0.04 -0.04 -0.03 0.03 -0.09 0.1 0.04 -0.05 0.04 -0.05 -0.01 0.01 0.05 -0.05 -0.02 0.03 0.04 -0.05 -0 0 -0.02 0.03 0.04 -0.06 0 -0 -0.02 0.03 0 -0 0.04 -0.07 -0.02 0.03 0.01 -0.01 0.04 -0.07 0.04 -0.07 0.01 -0.01 -0.05 0.09 0.03 -0.07 0.02 -0.03 -55.4 -26.3 0.37 -0.77 0.4 -0.8 0.33 -0.63 0.39 -0.74 0.43 -0.78 0.45 -0.78 0.43 -0.71 0.41 -0.67 0.48 -0.76 0.45 -0.69 0.44 -0.65 0.46 -0.68 0.52 -0.73 0.47 -0.63 0.49 -0.66 0.55 -0.71 0.49 -0.62 0.57 -0.69 0.52 -0.62 0.58 -0.68 0.6 -0.66 0.48 -0.52 0.54 -0.58 0.62 -0.64 0.63 -0.63 0.56 -0.56 0.64 -0.61 0.58 -0.53 0.59 -0.53 0.74 -0.64 0.59 -0.5 0.61 -0.51 -4.26 43.16zm47.4 -38.91l19.46 23.71 -23.73 19.45 4.26 -43.16zm7.29 -16.74l-12.22 60.09 0 0 0.13 0.03 0.09 0.01 0.15 0.01 0.07 0.01 0.04 0 0.05 -0 -0.03 0 -0.07 0.01 -0.09 0.01 -0.07 0.01 -0.05 0.01 -0.12 0.03 -0.16 0.05 -0.15 0.05 -0.1 0.03 -0.12 0.05 -0.11 0.04 -0.08 0.04 -0.06 0.03 -0.03 0.01 0 -0 0.08 -0.04 0.14 -0.08 0.22 -0.14 0.39 -0.27 0.55 -0.4 0.6 -0.47 1.16 -1.01 1.77 -1.79 2.72 -3.55 4.15 -9.72 -6.16 -26.31 -47.4 38.91 -6.18 -26.47 4.26 -9.97 2.98 -3.86 2.15 -2.18 1.68 -1.46 1.24 -0.98 1.31 -0.96 1.28 -0.86 1.21 -0.77 1.25 -0.74 1.29 -0.72 1.32 -0.7 1.38 -0.69 1.44 -0.67 1.52 -0.67 1.58 -0.64 1.64 -0.62 1.75 -0.6 1.76 -0.55 1.82 -0.52 1.94 -0.49 2.06 -0.45 2.1 -0.39 2.14 -0.32 2.22 -0.25 2.29 -0.18 2.42 -0.1 2.45 0.01 2.52 0.11 2.62 0.23 2.6 0.35 2.65 0.47 0 0zm309.76 23.91l19.39 58.18 0.95 -0.33 -12.94 4.55 -12.7 4 -12.47 3.46 -12.25 2.94 -12.04 2.44 -11.83 1.95 -11.63 1.48 -11.45 1.04 -11.26 0.61 -11.09 0.21 -10.91 -0.16 -10.74 -0.51 -10.6 -0.84 -10.44 -1.14 -10.3 -1.4 -10.18 -1.64 -10.06 -1.85 -9.97 -2.04 -9.89 -2.2 -9.82 -2.34 -9.77 -2.44 -9.76 -2.53 -9.74 -2.59 -9.75 -2.63 -9.77 -2.65 -9.82 -2.65 -9.89 -2.63 -9.98 -2.58 -10.09 -2.52 -10.21 -2.44 -10.37 -2.34 -10.55 -2.23 12.22 -60.09 11.42 2.41 11.16 2.52 10.9 2.6 10.64 2.66 10.4 2.69 10.2 2.71 9.98 2.69 9.79 2.65 9.61 2.6 9.44 2.51 9.3 2.41 9.17 2.29 9.05 2.15 8.94 1.98 8.87 1.82 8.8 1.62 8.75 1.41 8.74 1.19 8.72 0.95 8.74 0.69 8.79 0.42 8.86 0.13 8.95 -0.17 9.08 -0.5 9.24 -0.84 9.42 -1.2 9.63 -1.59 9.86 -2 10.13 -2.43 10.41 -2.89 10.73 -3.38 11.06 -3.89 0.95 -0.33zm-0.95 0.33l0.46 -0.17 0.49 -0.16 -0.95 0.33zm80.77 -221.03l61.32 0 0 0 0.01 8.41 0 8.68 -0.02 8.9 -0.06 9.12 -0.13 9.32 -0.21 9.48 -0.33 9.61 -0.45 9.74 -0.61 9.84 -0.78 9.91 -0.99 9.97 -1.21 9.99 -1.46 10.02 -1.75 10.01 -2.05 9.98 -2.39 9.94 -2.76 9.87 -3.17 9.78 -3.61 9.66 -4.08 9.52 -4.59 9.34 -5.14 9.13 -5.73 8.87 -6.33 8.57 -6.97 8.22 -7.62 7.8 -8.28 7.34 -8.94 6.81 -9.59 6.23 -10.23 5.61 -10.85 4.94 -11.44 4.26 -19.39 -58.18 7.42 -2.76 6.8 -3.1 6.24 -3.42 5.75 -3.73 5.31 -4.04 4.91 -4.35 4.56 -4.67 4.24 -5 3.95 -5.35 3.67 -5.69 3.4 -6.04 3.14 -6.38 2.88 -6.71 2.62 -7.03 2.37 -7.33 2.13 -7.59 1.89 -7.85 1.66 -8.08 1.44 -8.26 1.23 -8.44 1.04 -8.58 0.86 -8.69 0.69 -8.78 0.54 -8.84 0.41 -8.88 0.3 -8.89 0.2 -8.87 0.12 -8.82 0.06 -8.78 0.02 -8.69 -0 -8.57 -0.01 -8.44 0 0zm61.32 -774.76l0 774.76 -61.32 0 0 -774.76 30.66 -30.66 30.66 30.66zm-30.66 -30.66l30.66 0 0 30.66 -30.66 -30.66zm-194.16 -119.14l61.32 0 0 0 -0.08 16.41 -0.21 15.21 -0.29 14 -0.32 12.84 -0.3 11.68 -0.24 10.54 -0.13 9.39 0.01 8.23 0.19 7.04 0.36 5.8 0.51 4.46 0.58 3.07 0.47 1.64 0.12 0.32 -0.43 -0.64 -0.87 -0.93 -0.82 -0.63 -0.08 -0.07 1.14 0.39 2.57 0.59 4.01 0.59 5.39 0.47 6.68 0.3 7.91 0.12 9.12 -0.04 10.31 -0.17 11.49 -0.27 12.67 -0.32 13.89 -0.32 15.12 -0.29 16.39 -0.21 17.67 -0.08 0 61.32 -17.16 0.08 -15.94 0.2 -14.79 0.28 -13.7 0.32 -12.68 0.32 -11.73 0.27 -10.86 0.18 -10.09 0.05 -9.44 -0.15 -8.9 -0.41 -8.52 -0.76 -8.29 -1.25 -8.25 -1.96 -8.27 -2.95 -8.18 -4.27 -7.7 -5.8 -6.62 -7.14 -5.15 -7.98 -3.65 -8.25 -2.45 -8.22 -1.58 -8.19 -0.97 -8.27 -0.54 -8.5 -0.24 -8.91 -0.02 -9.47 0.14 -10.12 0.25 -10.89 0.3 -11.73 0.31 -12.67 0.28 -13.67 0.2 -14.72 0.08 -15.86 0 0zm60.6 -60.6l0 61.32 0 0 0.02 0 0 0 0.04 -0.01 0.08 -0.01 0.02 -0 0.06 -0.02 0.06 -0.02 0.03 -0.01 0.01 -0 0.05 -0.03 0.06 -0.04 0.02 -0.01 -0.01 0.01 0.01 -0.01 0.05 -0.04 0.03 -0.03 0.01 -0.01 -0.01 0.01 0.03 -0.04 0.02 -0.03 0.01 -0.01 0.03 -0.04 0.02 -0.05 0.01 -0.01 0.01 -0.03 0.03 -0.09 0.01 -0.03 0 -0.02 0.01 -0.08 0.01 -0.04 0 -0 0 -0.02 -61.32 0 0.08 -3.1 0.23 -3.04 0.38 -3.03 0.54 -3.03 0.68 -2.92 0.81 -2.86 0.97 -2.88 1.09 -2.74 1.2 -2.66 1.35 -2.64 1.47 -2.55 1.57 -2.45 1.69 -2.38 1.81 -2.3 1.87 -2.16 1.99 -2.09 2.1 -2.01 2.22 -1.93 2.28 -1.79 2.34 -1.67 2.44 -1.57 2.57 -1.48 2.64 -1.34 2.66 -1.21 2.74 -1.08 2.84 -0.97 2.9 -0.82 2.92 -0.68 3.03 -0.54 3.03 -0.38 3.04 -0.23 3.1 -0.08 0 0zm320.78 61.32l-320.78 0 0 -61.32 320.78 0 0 0 0 61.32zm60.6 -0.72l-61.32 0 0 0 0 0.02 0 0 0.01 0.04 0.01 0.08 0 0.02 0.01 0.03 0.03 0.09 0.01 0.03 0.01 0.01 0.02 0.05 0.03 0.04 0.01 0.01 0.02 0.03 0.03 0.04 -0.01 -0.01 0.01 0.01 0.03 0.03 0.05 0.04 0.01 0.01 0.01 0 0.01 0.01 0.03 0.01 0.05 0.03 0.04 0.02 0.02 0.01 0.05 0.01 0.06 0.02 0.01 0 0.09 0.01 0.04 0.01 0 0 0.02 0 0 -61.32 3.1 0.08 3.03 0.23 3.04 0.38 3.03 0.54 2.91 0.68 2.9 0.82 2.83 0.96 2.74 1.08 2.69 1.22 2.63 1.35 2.53 1.46 2.45 1.57 2.36 1.68 2.28 1.79 2.22 1.93 2.1 2.01 1.99 2.09 1.87 2.16 1.81 2.3 1.69 2.38 1.57 2.45 1.47 2.55 1.35 2.64 1.2 2.66 1.09 2.74 0.97 2.88 0.81 2.86 0.68 2.92 0.54 3.03 0.38 3.03 0.23 3.04 0.08 3.1 0 0zm-61.32 994.42l0 -994.42 61.32 0 0 994.42 0 0 -61.32 0z"/>
     <path id="_1_0" class="fil8" d="M711.63 1059.09c0,284.73 -207.53,406.19 -474.16,388.52 -31.03,-2.06 -181.57,-12.46 -198.51,-33.17 -13.86,-16.95 -6.87,-175.6 -3.88,-181.91 1.88,-3.95 4.61,-7.43 8.15,-10.33 -0.51,-0.63 11.37,-8.89 24.88,-6.15 118.4,24.08 195.94,70.92 325.56,22.95 103.88,-34.63 100.79,-161.02 100.79,-249.78l0 -774.76c-192.6,0 -163.5,28.68 -163.5,-149.8 0,-16.51 13.43,-29.94 29.94,-29.94l320.78 0c16.51,0 29.94,13.43 29.94,29.94l0 994.42z"/>
    </g>
    <path class="fil0" d="M1288.28 241.91c9.44,1.91 23.35,-103.12 25.08,-116.01 1.74,-12.89 -270.49,1.91 -317.87,10.91 -2.32,29.88 59.3,43.64 81.53,77.13l211.25 27.98z"/>
    <path class="fil3" d="M1313.51 126.19c-6.47,-12.88 -46,-76.12 -197.89,-77.28 -41.53,-0.3 -102.36,25.99 -130.04,43.9 -34.43,-26.67 -88.47,-59.07 -176.93,-62.15 67.09,54.62 108.61,96.73 140.83,139.15 -3.01,22.22 -0.72,38.15 17.11,58.89 36.43,23.31 50.65,89.5 81.75,103.77 3.88,1.78 35.26,7.58 83.58,11.59 27.39,2.27 37.8,12.59 61.34,14.6 7,0.59 37.08,3.56 42.24,3.53 10.44,-3.36 18.58,-11.44 28.27,-19.73l25.29 -100.62c-47.97,-8.49 -153.6,-23.65 -193.91,-29.33 -17.76,-29.39 -33.87,-46.79 -64.73,-74.06 37.5,-4.3 257.12,-23.39 283.09,-12.27z"/>
    <path class="fil5" d="M1164.87 986.52c-26,3.82 -44.26,-25.69 -64.33,-38.96 1.8,-8.43 37.31,-2.21 50.75,-8.56 14.14,-6.68 28.3,-29.79 40.89,-58.63 21.49,-49.2 30.44,-114.49 43.11,-144.55 6.89,17.41 17.06,155.01 6.55,171.49 -13.64,21.4 -51.27,75.48 -76.99,79.21z"/>
    <path class="fil3" d="M1594.76 790.8c50.36,-1.45 142.66,-15.86 181.04,-50.67 4.49,-4.07 -58.69,-60.56 -68.57,-70.51 -10.18,82.85 -52.83,93.59 -112.47,121.18z"/>
    <path class="fil0" d="M1077.74 338.07c-1.05,1.48 -6.53,-2.84 -7.48,-1.17 14.25,22.85 9.37,38.33 7.91,42.31 3.35,4.23 29.34,15.92 51.64,16.25 26.81,0.4 55.25,-6.55 62.55,-18.05l0.89 -18.75c-19.37,-4.8 -40.83,-12.89 -61.34,-14.59 -21.85,-1.81 -40.23,-3.99 -54.17,-6z"/>
   </g>
  </g>
 </g>
</svg>
