<?xml version="1.0" encoding="utf-8"?>
<!-- Generator: Adobe Illustrator 26.0.1, SVG Export Plug-In . SVG Version: 6.00 Build 0)  -->
<svg version="1.1" id="Calque_1" xmlns="http://www.w3.org/2000/svg" xmlns:xlink="http://www.w3.org/1999/xlink" x="0px" y="0px"
	 viewBox="0 0 220 220" style="enable-background:new 0 0 220 220;" xml:space="preserve">
<style type="text/css">
	.st0{fill:#00284B;}
	.st1{fill:#FFFFFF;}
</style>
<g>
	<path class="st0" d="M105.8,9c-1.8-0.1-3.6-0.2-5.4-0.2c-25,0-47.7,10.6-67.5,31.8c-18,19.2-24,34.7-24,53.3
		c0,10,1.8,20.9,4.4,33.8c4.9,24.2,19.3,47.6,39.5,64.2c15.4,12.7,32.6,19.1,50.7,19.3c9.4,0.1,19-1.6,28.8-5
		c31.6-10.9,61.7-42.1,73.4-75.8c3.7-10.7,5.5-21.1,5.4-31C211,75.2,200,54,178.9,38.9C153.4,20.4,128.8,10.4,105.8,9z"/>
	<g>
		<path class="st1" d="M69.8,110.2h-6.9v0.2c-0.1,1.3-0.9,13.1-11.4,13.1c-9.4,0-14.2-8.5-14.2-25.1c0-16.7,4.8-25.1,14.2-25.1
			c10.7,0,11.4,12.6,11.4,13.1v0.2h6.9c0.6,0,1.3-0.3,1.7-0.7c0.4-0.4,0.6-1,0.6-1.6C72,81,70.3,64.7,51.3,64.7
			c-15.3,0-23.4,11.6-23.4,33.7s8.1,33.8,23.4,33.8c18.3,0,20.5-14.9,20.8-19.5c0-0.6-0.2-1.2-0.6-1.7
			C71,110.5,70.4,110.2,69.8,110.2z"/>
		<path class="st1" d="M177.6,94.4L177.6,94.4l-6-2.6c-5.7-2.5-7.8-5-7.8-9.4c0-5.7,4.2-9.6,10.5-9.6c3.7,0,6.7,0.8,10.4,4.5
			l0.2,0.2l3.2-2.9c1.8-1.7,1.3-3.3,0.5-4.3c-3.1-3.7-8.1-5.7-14.1-5.7c-11.5,0-19.8,7.5-19.8,17.8c0,10.2,6.4,14.4,13.3,17.5
			l6.1,2.7c6.1,2.7,9,5.1,9,11c0,8-7.3,10.2-11.6,10.2c-3.7,0-7.8-0.8-12.9-6.5l-0.2-0.2l-3.3,2.9c-1.7,1.5-1.7,2.8-0.1,4.9
			c4.6,5.9,11.3,7.1,16.1,7.1c10.4,0,21-6.4,21-18.6C192.3,102.9,186.4,98.2,177.6,94.4z"/>
		<path class="st1" d="M118.7,84c0-10.4-8.4-19.2-18.9-19.2c-4.9,0-9.4,1.9-12.7,4.9v-3.6h-6.3c-1.9,0-2.6,1.2-2.6,2.7v60.8
			c0,1.7,1,2.6,2.6,2.6h6.3V84.4c0-6.3,5.1-11.4,11.4-11.4s11.4,5.1,11.4,11.4v47.8h6.2c1.7,0,2.6-1,2.6-2.6
			C118.7,129.6,118.7,84.1,118.7,84z"/>
		<path class="st1" d="M154.6,69.3c0.3-0.4,0.5-0.9,0.5-1.5c0-1-0.7-1.9-1.6-2.2c-1.8-0.6-3.7-0.9-5.8-0.9c-4.9,0-9.4,1.9-12.7,4.9
			V66h-6.3c-1.9,0-2.6,1.2-2.6,2.7v60.8c0,1.7,1,2.6,2.6,2.6h6.3V84.3c0-6.3,5.1-11.4,11.4-11.4c1.6,0,3.2,0.4,4.6,1L154.6,69.3
			L154.6,69.3z"/>
	</g>
</g>
</svg>
